<svg width="20" height="20" viewBox="0 0 20 20" fill="none" xmlns="http://www.w3.org/2000/svg">
<g clip-path="url(#clip0_198626_12)">
<rect width="20" height="20" fill="white"/>
<path d="M9.13 15.298L10.138 15.316V17.926H9.13V15.298ZM9.22 15.1V4.138L10.03 4.012V15.136L9.22 15.1ZM9.13 1.33H10.138V3.904L9.13 4.03V1.33ZM13.144 5.902C13 5.734 12.808 5.572 12.568 5.416C12.328 5.26 12.058 5.122 11.758 5.002C11.458 4.87 11.128 4.768 10.768 4.696C10.42 4.612 10.054 4.57 9.67 4.57C8.686 4.57 7.96 4.756 7.492 5.128C7.024 5.5 6.79 6.01 6.79 6.658C6.79 7.114 6.91 7.474 7.15 7.738C7.39 8.002 7.756 8.218 8.248 8.386C8.752 8.554 9.388 8.728 10.156 8.908C11.044 9.1 11.812 9.334 12.46 9.61C13.108 9.886 13.606 10.258 13.954 10.726C14.302 11.182 14.476 11.794 14.476 12.562C14.476 13.174 14.356 13.708 14.116 14.164C13.888 14.608 13.564 14.98 13.144 15.28C12.724 15.568 12.232 15.784 11.668 15.928C11.104 16.06 10.492 16.126 9.832 16.126C9.184 16.126 8.548 16.06 7.924 15.928C7.312 15.784 6.73 15.58 6.178 15.316C5.626 15.052 5.11 14.722 4.63 14.326L5.404 12.958C5.596 13.162 5.842 13.366 6.142 13.57C6.454 13.762 6.802 13.942 7.186 14.11C7.582 14.278 8.008 14.416 8.464 14.524C8.92 14.62 9.388 14.668 9.868 14.668C10.78 14.668 11.488 14.506 11.992 14.182C12.496 13.846 12.748 13.36 12.748 12.724C12.748 12.244 12.604 11.86 12.316 11.572C12.04 11.284 11.626 11.044 11.074 10.852C10.522 10.66 9.85 10.468 9.058 10.276C8.194 10.06 7.468 9.826 6.88 9.574C6.292 9.31 5.848 8.968 5.548 8.548C5.26 8.128 5.116 7.582 5.116 6.91C5.116 6.094 5.314 5.404 5.71 4.84C6.106 4.276 6.652 3.85 7.348 3.562C8.044 3.274 8.83 3.13 9.706 3.13C10.282 3.13 10.816 3.19 11.308 3.31C11.812 3.43 12.28 3.598 12.712 3.814C13.144 4.03 13.54 4.288 13.9 4.588L13.144 5.902Z" fill="black"/>
</g>
<defs>
<clipPath id="clip0_198626_12">
<rect width="20" height="20" fill="white"/>
</clipPath>
</defs>
</svg>
