<svg width="172" height="19" viewBox="0 0 172 19" fill="none" xmlns="http://www.w3.org/2000/svg">
<path d="M8 18.12C6.8 18.12 5.712 17.88 4.736 17.4C3.76 16.92 2.92 16.272 2.216 15.456C1.512 14.624 0.968 13.696 0.584 12.672C0.2 11.632 0.00800008 10.568 0.00800008 9.48C0.00800008 8.344 0.208 7.264 0.608 6.24C1.008 5.2 1.568 4.28 2.288 3.48C3.024 2.664 3.88 2.024 4.856 1.56C5.832 1.08 6.888 0.839999 8.024 0.839999C9.224 0.839999 10.312 1.088 11.288 1.584C12.264 2.08 13.096 2.744 13.784 3.576C14.488 4.408 15.032 5.336 15.416 6.36C15.8 7.384 15.992 8.432 15.992 9.504C15.992 10.64 15.792 11.728 15.392 12.768C14.992 13.792 14.432 14.712 13.712 15.528C12.992 16.328 12.144 16.96 11.168 17.424C10.192 17.888 9.136 18.12 8 18.12ZM1.688 9.48C1.688 10.408 1.84 11.304 2.144 12.168C2.448 13.016 2.88 13.776 3.44 14.448C4 15.104 4.664 15.632 5.432 16.032C6.216 16.416 7.072 16.608 8 16.608C8.976 16.608 9.848 16.408 10.616 16.008C11.4 15.592 12.064 15.048 12.608 14.376C13.168 13.688 13.592 12.92 13.88 12.072C14.168 11.224 14.312 10.36 14.312 9.48C14.312 8.552 14.16 7.664 13.856 6.816C13.552 5.968 13.112 5.208 12.536 4.536C11.976 3.864 11.312 3.336 10.544 2.952C9.776 2.568 8.928 2.376 8 2.376C7.04 2.376 6.168 2.576 5.384 2.976C4.616 3.376 3.952 3.92 3.392 4.608C2.848 5.28 2.424 6.04 2.12 6.888C1.832 7.736 1.688 8.6 1.688 9.48ZM26.0954 18.12C24.7514 18.12 23.6154 17.88 22.6874 17.4C21.7594 16.92 21.0234 16.28 20.4794 15.48C19.9354 14.664 19.5354 13.744 19.2794 12.72C19.0394 11.696 18.9194 10.64 18.9194 9.552V0.959999H20.5754V9.552C20.5754 10.432 20.6634 11.296 20.8394 12.144C21.0314 12.992 21.3354 13.752 21.7514 14.424C22.1674 15.096 22.7274 15.632 23.4314 16.032C24.1354 16.416 25.0154 16.608 26.0714 16.608C27.1594 16.608 28.0554 16.408 28.7594 16.008C29.4794 15.592 30.0394 15.048 30.4394 14.376C30.8554 13.704 31.1514 12.952 31.3274 12.12C31.5034 11.272 31.5914 10.416 31.5914 9.552V0.959999H33.2714V9.552C33.2714 10.688 33.1434 11.776 32.8874 12.816C32.6314 13.856 32.2154 14.768 31.6394 15.552C31.0794 16.336 30.3434 16.96 29.4314 17.424C28.5194 17.888 27.4074 18.12 26.0954 18.12ZM49.3726 2.448H43.3006V18H41.6206V2.448H35.5486V0.959999H49.3726V2.448ZM64.2031 18.12C63.0031 18.12 61.9151 17.88 60.9391 17.4C59.9631 16.92 59.1231 16.272 58.4191 15.456C57.7151 14.624 57.1711 13.696 56.7871 12.672C56.4031 11.632 56.2111 10.568 56.2111 9.48C56.2111 8.344 56.4111 7.264 56.8111 6.24C57.2111 5.2 57.7711 4.28 58.4911 3.48C59.2271 2.664 60.0831 2.024 61.0591 1.56C62.0351 1.08 63.0911 0.839999 64.2271 0.839999C65.4271 0.839999 66.5151 1.088 67.4911 1.584C68.4671 2.08 69.2991 2.744 69.9871 3.576C70.6911 4.408 71.2351 5.336 71.6191 6.36C72.0031 7.384 72.1951 8.432 72.1951 9.504C72.1951 10.64 71.9951 11.728 71.5951 12.768C71.1951 13.792 70.6351 14.712 69.9151 15.528C69.1951 16.328 68.3471 16.96 67.3711 17.424C66.3951 17.888 65.3391 18.12 64.2031 18.12ZM57.8911 9.48C57.8911 10.408 58.0431 11.304 58.3471 12.168C58.6511 13.016 59.0831 13.776 59.6431 14.448C60.2031 15.104 60.8671 15.632 61.6351 16.032C62.4191 16.416 63.2751 16.608 64.2031 16.608C65.1791 16.608 66.0511 16.408 66.8191 16.008C67.6031 15.592 68.2671 15.048 68.8111 14.376C69.3711 13.688 69.7951 12.92 70.0831 12.072C70.3711 11.224 70.5151 10.36 70.5151 9.48C70.5151 8.552 70.3631 7.664 70.0591 6.816C69.7551 5.968 69.3151 5.208 68.7391 4.536C68.1791 3.864 67.5151 3.336 66.7471 2.952C65.9791 2.568 65.1311 2.376 64.2031 2.376C63.2431 2.376 62.3711 2.576 61.5871 2.976C60.8191 3.376 60.1551 3.92 59.5951 4.608C59.0511 5.28 58.6271 6.04 58.3231 6.888C58.0351 7.736 57.8911 8.6 57.8911 9.48ZM75.3626 18V0.959999H86.5466V2.448H77.0426V8.712H85.0586V10.104H77.0426V18H75.3626ZM105.01 4.152C104.77 3.88 104.49 3.64 104.17 3.432C103.85 3.208 103.49 3.016 103.09 2.856C102.69 2.696 102.258 2.568 101.794 2.472C101.346 2.376 100.866 2.328 100.354 2.328C98.8661 2.328 97.7701 2.616 97.0661 3.192C96.3781 3.752 96.0341 4.52 96.0341 5.496C96.0341 6.168 96.1941 6.696 96.5141 7.08C96.8501 7.464 97.3701 7.776 98.0741 8.016C98.7781 8.256 99.6741 8.504 100.762 8.76C101.978 9.016 103.026 9.32 103.906 9.672C104.786 10.024 105.466 10.504 105.946 11.112C106.426 11.704 106.666 12.512 106.666 13.536C106.666 14.32 106.514 15 106.21 15.576C105.906 16.152 105.482 16.632 104.938 17.016C104.394 17.4 103.746 17.688 102.994 17.88C102.242 18.056 101.418 18.144 100.522 18.144C99.6421 18.144 98.7941 18.056 97.9781 17.88C97.1781 17.688 96.4181 17.416 95.6981 17.064C94.9781 16.696 94.3061 16.232 93.6821 15.672L94.5221 14.304C94.8261 14.624 95.1861 14.928 95.6021 15.216C96.0341 15.488 96.5061 15.736 97.0181 15.96C97.5461 16.184 98.1061 16.36 98.6981 16.488C99.3061 16.6 99.9301 16.656 100.57 16.656C101.93 16.656 102.986 16.408 103.738 15.912C104.506 15.416 104.89 14.68 104.89 13.704C104.89 13 104.698 12.44 104.314 12.024C103.93 11.592 103.354 11.24 102.586 10.968C101.818 10.696 100.874 10.432 99.7541 10.176C98.5701 9.904 97.5701 9.6 96.7541 9.264C95.9381 8.928 95.3221 8.488 94.9061 7.944C94.5061 7.384 94.3061 6.648 94.3061 5.736C94.3061 4.68 94.5621 3.792 95.0741 3.072C95.6021 2.336 96.3221 1.784 97.2341 1.416C98.1461 1.032 99.1941 0.839999 100.378 0.839999C101.13 0.839999 101.826 0.919999 102.466 1.08C103.122 1.224 103.722 1.44 104.266 1.728C104.826 2.016 105.346 2.376 105.826 2.808L105.01 4.152ZM121.701 2.448H115.629V18H113.949V2.448H107.877V0.959999H121.701V2.448ZM130.531 18.12C129.331 18.12 128.243 17.88 127.267 17.4C126.291 16.92 125.451 16.272 124.747 15.456C124.043 14.624 123.499 13.696 123.115 12.672C122.731 11.632 122.539 10.568 122.539 9.48C122.539 8.344 122.739 7.264 123.139 6.24C123.539 5.2 124.099 4.28 124.819 3.48C125.555 2.664 126.411 2.024 127.387 1.56C128.363 1.08 129.419 0.839999 130.555 0.839999C131.755 0.839999 132.843 1.088 133.819 1.584C134.795 2.08 135.627 2.744 136.315 3.576C137.019 4.408 137.563 5.336 137.947 6.36C138.331 7.384 138.523 8.432 138.523 9.504C138.523 10.64 138.323 11.728 137.923 12.768C137.523 13.792 136.963 14.712 136.243 15.528C135.523 16.328 134.675 16.96 133.699 17.424C132.723 17.888 131.667 18.12 130.531 18.12ZM124.219 9.48C124.219 10.408 124.371 11.304 124.675 12.168C124.979 13.016 125.411 13.776 125.971 14.448C126.531 15.104 127.195 15.632 127.963 16.032C128.747 16.416 129.603 16.608 130.531 16.608C131.507 16.608 132.379 16.408 133.147 16.008C133.931 15.592 134.595 15.048 135.139 14.376C135.699 13.688 136.123 12.92 136.411 12.072C136.699 11.224 136.843 10.36 136.843 9.48C136.843 8.552 136.691 7.664 136.387 6.816C136.083 5.968 135.643 5.208 135.067 4.536C134.507 3.864 133.843 3.336 133.075 2.952C132.307 2.568 131.459 2.376 130.531 2.376C129.571 2.376 128.699 2.576 127.915 2.976C127.147 3.376 126.483 3.92 125.923 4.608C125.379 5.28 124.955 6.04 124.651 6.888C124.363 7.736 124.219 8.6 124.219 9.48ZM140.563 9.36C140.563 8.32 140.739 7.304 141.091 6.312C141.459 5.304 141.987 4.392 142.675 3.576C143.363 2.744 144.211 2.088 145.219 1.608C146.227 1.112 147.371 0.863999 148.651 0.863999C150.171 0.863999 151.467 1.216 152.539 1.92C153.627 2.608 154.427 3.496 154.939 4.584L153.619 5.4C153.251 4.648 152.787 4.056 152.227 3.624C151.667 3.176 151.067 2.856 150.427 2.664C149.803 2.472 149.179 2.376 148.555 2.376C147.531 2.376 146.627 2.584 145.843 3C145.059 3.4 144.395 3.944 143.851 4.632C143.323 5.304 142.923 6.064 142.651 6.912C142.379 7.744 142.243 8.592 142.243 9.456C142.243 10.4 142.403 11.304 142.723 12.168C143.043 13.032 143.491 13.8 144.067 14.472C144.643 15.128 145.315 15.656 146.083 16.056C146.867 16.44 147.715 16.632 148.627 16.632C149.267 16.632 149.923 16.52 150.595 16.296C151.267 16.072 151.891 15.728 152.467 15.264C153.059 14.8 153.531 14.2 153.883 13.464L155.275 14.184C154.923 15.032 154.379 15.752 153.643 16.344C152.907 16.936 152.083 17.384 151.171 17.688C150.275 17.992 149.395 18.144 148.531 18.144C147.363 18.144 146.291 17.896 145.315 17.4C144.339 16.888 143.491 16.216 142.771 15.384C142.067 14.536 141.523 13.592 141.139 12.552C140.755 11.496 140.563 10.432 140.563 9.36ZM158.144 18V0.983999H159.824V10.872L169.208 0.959999H171.056L164.096 8.448L171.416 18H169.52L163.016 9.456L159.824 12.768V18H158.144Z" fill="#8D8F9A"/>
</svg>
